<?xml version="1.0" encoding="UTF-8" standalone="no"?>
<!-- Created with Inkscape (http://www.inkscape.org/) -->

<svg
   width="19mm"
   height="19mm"
   viewBox="0 0 19 19"
   version="1.1"
   id="svg5"
   inkscape:version="1.1.1 (3bf5ae0d25, 2021-09-20)"
   sodipodi:docname="main_logo.svg"
   xmlns:inkscape="http://www.inkscape.org/namespaces/inkscape"
   xmlns:sodipodi="http://sodipodi.sourceforge.net/DTD/sodipodi-0.dtd"
   xmlns="http://www.w3.org/2000/svg"
   xmlns:svg="http://www.w3.org/2000/svg">
  <sodipodi:namedview
     id="namedview7"
     pagecolor="#ffffff"
     bordercolor="#666666"
     borderopacity="1.0"
     inkscape:pageshadow="2"
     inkscape:pageopacity="0.0"
     inkscape:pagecheckerboard="0"
     inkscape:document-units="mm"
     showgrid="false"
     inkscape:zoom="8.3856039"
     inkscape:cx="32.496169"
     inkscape:cy="39.293533"
     inkscape:window-width="1920"
     inkscape:window-height="1017"
     inkscape:window-x="-8"
     inkscape:window-y="1072"
     inkscape:window-maximized="1"
     inkscape:current-layer="text5477" />
  <defs
     id="defs2" />
  <g
     inkscape:label="Layer 1"
     inkscape:groupmode="layer"
     id="layer1">
    <g
       aria-label="S"
       id="text2727"
       style="font-size:10.5833px;line-height:1.25;stroke-width:0.264583" />
    <g
       aria-label="L"
       id="text4549"
       style="font-size:10.5833px;line-height:1.25;stroke-width:0.264583" />
    <g
       aria-label="C"
       id="text5477"
       style="font-size:10.5833px;line-height:1.25;stroke-width:0.264583"
       transform="matrix(1.0843998,0,0,1.0667745,-82.339554,-151.51486)">
      <path
         id="path5691"
         d="m 90.895151,151.95519 q -0.284219,0.12402 -0.516762,0.23254 -0.227376,0.10852 -0.599445,0.22737 -0.315225,0.0982 -0.687295,0.16537 -0.366901,0.0724 -0.811317,0.0724 -0.837156,0 -1.52445,-0.23255 -0.682127,-0.23771 -1.188554,-0.73897 -0.496092,-0.49092 -0.775144,-1.2454 -0.279052,-0.75964 -0.279052,-1.76216 0,-0.95084 0.268717,-1.70015 0.268716,-0.7493 0.775144,-1.26606 0.490924,-0.50126 1.183386,-0.76481 0.69763,-0.26355 1.545121,-0.26355 0.620115,0 1.235062,0.14986 0.620116,0.14986 1.374589,0.5271 v 1.21439 h -0.07751 q -0.635618,-0.53227 -1.260901,-0.77515 -0.625283,-0.24287 -1.338415,-0.24287 -0.583942,0 -1.054196,0.1912 -0.465087,0.18603 -0.831988,0.58394 -0.356567,0.38757 -0.558104,0.98185 -0.19637,0.58911 -0.19637,1.36425 0,0.81132 0.217041,1.39526 0.222208,0.58394 0.568439,0.95085 0.361733,0.3824 0.842323,0.56843 0.485757,0.18087 1.02319,0.18087 0.73897,0 1.384924,-0.25321 0.645953,-0.25322 1.209224,-0.75964 h 0.07235 z m -1.693229,4.94633 h -4.867904 v -7.6946 h 1.02319 v 6.7851 h 3.844714 z m -4.337239,-6.64757 q 0,0.44959 -0.211873,0.88883 -0.206705,0.43925 -0.583941,0.74414 -0.413411,0.33073 -0.966347,0.51677 -0.547768,0.18603 -1.322912,0.18603 -0.831988,0 -1.498612,-0.15503 -0.661456,-0.15503 -1.34875,-0.45992 v -1.28157 h 0.07235 q 0.583942,0.48576 1.348751,0.74931 0.764809,0.26355 1.4366,0.26355 0.950843,0 1.477941,-0.35657 0.532266,-0.35657 0.532266,-0.95084 0,-0.5116 -0.253214,-0.75448 -0.248046,-0.24288 -0.759641,-0.37723 -0.387572,-0.10336 -0.842323,-0.17054 -0.449584,-0.0672 -0.956011,-0.17053 -1.02319,-0.21704 -1.519282,-0.73897 -0.490925,-0.5271 -0.490925,-1.36942 0,-0.96634 0.816485,-1.58129 0.816485,-0.62012 2.072219,-0.62012 0.811317,0 1.488276,0.15503 0.676959,0.15503 1.198889,0.38241 v 1.20922 h -0.07235 q -0.439249,-0.37207 -1.157549,-0.61495 -0.713132,-0.24804 -1.462438,-0.24804 -0.821653,0 -1.322913,0.34106 -0.496092,0.34106 -0.496092,0.8785 0,0.48059 0.248046,0.75447 0.248046,0.27388 0.873329,0.41858 0.330728,0.0723 0.940508,0.1757 0.60978,0.10335 1.033526,0.21187 0.857826,0.22738 1.291906,0.68729 0.434081,0.45992 0.434081,1.28674 z" />
    </g>
  </g>
</svg>
