<?xml version="1.0" encoding="UTF-8" standalone="no"?>
<!-- Created with Inkscape (http://www.inkscape.org/) -->

<svg
   width="19mm"
   height="19mm"
   viewBox="0 0 19 19"
   version="1.1"
   id="svg5"
   inkscape:version="1.1.1 (3bf5ae0d25, 2021-09-20)"
   sodipodi:docname="main_logo_light.svg"
   xmlns:inkscape="http://www.inkscape.org/namespaces/inkscape"
   xmlns:sodipodi="http://sodipodi.sourceforge.net/DTD/sodipodi-0.dtd"
   xmlns="http://www.w3.org/2000/svg"
   xmlns:svg="http://www.w3.org/2000/svg">
  <sodipodi:namedview
     id="namedview7"
     pagecolor="#ffffff"
     bordercolor="#666666"
     borderopacity="1.0"
     inkscape:pageshadow="2"
     inkscape:pageopacity="0.0"
     inkscape:pagecheckerboard="0"
     inkscape:document-units="mm"
     showgrid="false"
     inkscape:zoom="8.3856039"
     inkscape:cx="32.496169"
     inkscape:cy="39.293533"
     inkscape:window-width="1920"
     inkscape:window-height="1017"
     inkscape:window-x="-8"
     inkscape:window-y="1072"
     inkscape:window-maximized="1"
     inkscape:current-layer="text5477" />
  <defs
     id="defs2" />
  <g
     inkscape:label="Layer 1"
     inkscape:groupmode="layer"
     id="layer1">
    <g
       aria-label="S"
       id="text2727"
       style="font-size:10.5833px;line-height:1.25;stroke-width:0.264583" />
    <g
       aria-label="L"
       id="text4549"
       style="font-size:10.5833px;line-height:1.25;stroke-width:0.264583" />
    <g
       aria-label="C"
       id="text5477"
       style="font-size:10.5833px;line-height:1.25;stroke-width:0.264583"
       transform="matrix(1.0843998,0,0,1.0667745,-82.339554,-151.51486)">
      <path
         style="fill:#ffffff;stroke-width:6.97581"
         d="m 81.677501,144.39612 c -0.926202,-0.012 -1.917994,0.32493 -2.487789,1.10032 -0.431009,0.60254 -0.428397,1.45817 -0.08713,2.10106 0.396994,0.70597 1.213767,0.96876 1.953649,1.10605 0.727421,0.16848 1.513707,0.17669 2.180649,0.5483 0.589223,0.36627 0.563986,1.33289 0.042,1.75088 -0.588932,0.48189 -1.402039,0.50926 -2.12211,0.43636 -0.843363,-0.10944 -1.655278,-0.45591 -2.327701,-0.98417 0.0054,0.42402 -0.03478,0.85779 0.01159,1.27627 0.513863,0.23551 1.065284,0.39284 1.617886,0.50475 0.940429,0.12394 1.947965,0.18103 2.83237,-0.22997 0.34112,-0.15059 0.646566,-0.3746 0.90643,-0.64398 0,1.75778 0,3.51556 0,5.27333 1.619698,0 3.239395,0 4.859093,0 0,-0.29577 0,-0.59154 0,-0.88731 -1.289939,0 -2.579878,0 -3.869816,0 0.0062,-1.51662 -0.01441,-3.04363 0.01642,-4.55389 0.402177,0.41842 0.869724,0.79106 1.427768,0.96501 1.187157,0.39539 2.500477,0.26401 3.634349,-0.24544 0.155941,-0.0678 0.309537,-0.14102 0.464317,-0.2115 -0.0055,-0.3895 0.03352,-0.81813 -0.0073,-1.18551 -0.58496,0.49232 -1.27892,0.86838 -2.037759,0.97894 -0.898655,0.14844 -1.934299,-0.0437 -2.540428,-0.78785 -0.727954,-0.86274 -0.819862,-2.08688 -0.646599,-3.16631 0.140086,-0.73588 0.503178,-1.48133 1.164252,-1.86601 0.496971,-0.32652 1.10048,-0.40297 1.679406,-0.35989 0.858246,0.0208 1.648603,0.44018 2.315207,0.962 0.133426,0.1144 0.0567,-0.18892 0.08401,-0.25249 0.0068,-0.29963 0.0025,-0.59937 0.0037,-0.89905 -0.854187,-0.42571 -1.797085,-0.72034 -2.757846,-0.65832 -1.047101,-0.009 -2.122233,0.42367 -2.777168,1.27522 -0.670172,0.8125 -0.84654,1.913 -0.813783,2.94338 0.05567,0.31269 -0.148402,0.006 -0.26534,-0.0761 -0.716492,-0.59407 -1.6759,-0.65924 -2.546732,-0.8386 -0.539803,-0.11533 -1.195287,-0.16359 -1.539943,-0.66452 -0.182091,-0.27501 -0.154501,-0.63163 -0.107974,-0.94317 0.227361,-0.62063 0.930561,-0.87283 1.530911,-0.91014 0.995898,-0.035 2.019845,0.20345 2.835077,0.80454 0.138555,0.13956 0.08064,-0.10856 0.09411,-0.18699 0.0024,-0.32003 -0.0057,-0.64 -0.0089,-0.95999 -0.828428,-0.31766 -1.703994,-0.53008 -2.594065,-0.51506 -0.0383,-5.5e-4 -0.07661,-2.2e-4 -0.114909,-1.2e-4 z"
         id="path5948" />
    </g>
  </g>
</svg>
